# xmcd
#
# Track frame offsets:
#	150
#	11067
#	23330
#	35434
#	45926
#	55475
#	63212
#	72865
#	85100
#	95674
#
# Disc length: 1392 seconds
#
# Revision: 1
# Processed by: cddbd v1.5.2PL0 Copyright (c) Steve Scherf et al.
# Submitted via: audiograbber 1.83.01
#
DISCID=73056e0a
DTITLE=Fats Domino - Stompin'
DYEAR=1967
DGENRE=Blues/Rock&Roll
TTITLE0=All By Myself
TTITLE1=Don't Blame It On Me
TTITLE2=Are You Going My Way
TTITLE3=Be My Guest
TTITLE4=I Can't Give You Anything But Love
TTITLE5=Along The Navajo Trail
TTITLE6=Every Night
TTITLE7=She's My Baby
TTITLE8=Teen Age Love
TTITLE9=Domino Stomp
EXTD=
EXTT0=
EXTT1=
EXTT2=
EXTT3=
EXTT4=
EXTT5=
EXTT6=
EXTT7=
EXTT8=
EXTT9=
PLAYORDER=
